<svg xmlns="http://www.w3.org/2000/svg" xmlns:xlink="http://www.w3.org/1999/xlink" width="500" zoomAndPan="magnify" viewBox="0 0 375 374.999991" height="500" preserveAspectRatio="xMidYMid meet" version="1.0"><defs><g/><clipPath id="876dd03949"><path d="M 164.515625 162.671875 L 210.265625 162.671875 L 210.265625 206.171875 L 164.515625 206.171875 Z M 164.515625 162.671875 " clip-rule="nonzero"/></clipPath></defs><g fill="#000000" fill-opacity="1"><g transform="translate(70.713812, 157.795434)"><g><path d="M 31.515625 -20.671875 C 31.515625 -18.847656 31.019531 -17.195312 30.03125 -15.71875 C 29.050781 -14.25 27.625 -13.171875 25.75 -12.484375 L 32.375 0 L 21.625 0 L 16.34375 -10.875 L 12.78125 -10.875 L 12.78125 0 L 3.203125 0 L 3.203125 -29.828125 L 21.453125 -29.828125 C 23.585938 -29.828125 25.414062 -29.410156 26.9375 -28.578125 C 28.457031 -27.753906 29.597656 -26.640625 30.359375 -25.234375 C 31.128906 -23.835938 31.515625 -22.316406 31.515625 -20.671875 Z M 21.765625 -20.28125 C 21.765625 -21.0625 21.503906 -21.710938 20.984375 -22.234375 C 20.460938 -22.753906 19.828125 -23.015625 19.078125 -23.015625 L 12.78125 -23.015625 L 12.78125 -17.515625 L 19.078125 -17.515625 C 19.828125 -17.515625 20.460938 -17.78125 20.984375 -18.3125 C 21.503906 -18.84375 21.765625 -19.5 21.765625 -20.28125 Z M 21.765625 -20.28125 "/></g></g></g><g fill="#000000" fill-opacity="1"><g transform="translate(100.614596, 157.795434)"><g><path d="M 3.203125 -29.828125 L 29 -29.828125 L 29 -22.671875 L 12.78125 -22.671875 L 12.78125 -18.546875 L 26.65625 -18.546875 L 26.65625 -11.703125 L 12.78125 -11.703125 L 12.78125 -7.15625 L 29.296875 -7.15625 L 29.296875 0 L 3.203125 0 Z M 3.203125 -29.828125 "/></g></g></g><g fill="#000000" fill-opacity="1"><g transform="translate(128.088568, 157.795434)"><g><path d="M 15.734375 -30.34375 C 19.546875 -30.34375 22.679688 -29.566406 25.140625 -28.015625 C 27.597656 -26.472656 28.851562 -24.1875 28.90625 -21.15625 L 28.90625 -20.625 L 19.9375 -20.625 L 19.9375 -20.8125 C 19.9375 -21.675781 19.617188 -22.394531 18.984375 -22.96875 C 18.347656 -23.550781 17.378906 -23.84375 16.078125 -23.84375 C 14.804688 -23.84375 13.832031 -23.65625 13.15625 -23.28125 C 12.476562 -22.90625 12.140625 -22.441406 12.140625 -21.890625 C 12.140625 -21.109375 12.597656 -20.53125 13.515625 -20.15625 C 14.441406 -19.78125 15.929688 -19.390625 17.984375 -18.984375 C 20.378906 -18.492188 22.347656 -17.976562 23.890625 -17.4375 C 25.441406 -16.90625 26.796875 -16.03125 27.953125 -14.8125 C 29.109375 -13.601562 29.703125 -11.957031 29.734375 -9.875 C 29.734375 -6.351562 28.539062 -3.738281 26.15625 -2.03125 C 23.769531 -0.332031 20.582031 0.515625 16.59375 0.515625 C 11.945312 0.515625 8.328125 -0.257812 5.734375 -1.8125 C 3.148438 -3.375 1.859375 -6.132812 1.859375 -10.09375 L 10.921875 -10.09375 C 10.921875 -8.59375 11.3125 -7.585938 12.09375 -7.078125 C 12.875 -6.578125 14.085938 -6.328125 15.734375 -6.328125 C 16.941406 -6.328125 17.941406 -6.457031 18.734375 -6.71875 C 19.535156 -6.976562 19.9375 -7.515625 19.9375 -8.328125 C 19.9375 -9.046875 19.492188 -9.582031 18.609375 -9.9375 C 17.734375 -10.300781 16.296875 -10.6875 14.296875 -11.09375 C 11.867188 -11.613281 9.859375 -12.15625 8.265625 -12.71875 C 6.679688 -13.28125 5.296875 -14.210938 4.109375 -15.515625 C 2.929688 -16.816406 2.34375 -18.582031 2.34375 -20.8125 C 2.34375 -24.070312 3.601562 -26.472656 6.125 -28.015625 C 8.65625 -29.566406 11.859375 -30.34375 15.734375 -30.34375 Z M 15.734375 -30.34375 "/></g></g></g><g fill="#000000" fill-opacity="1"><g transform="translate(155.562541, 157.795434)"><g><path d="M 20.375 -22.1875 L 20.375 0 L 10.796875 0 L 10.796875 -22.1875 L 1 -22.1875 L 1 -29.828125 L 30.125 -29.828125 L 30.125 -22.1875 Z M 20.375 -22.1875 "/></g></g></g><g fill="#000000" fill-opacity="1"><g transform="translate(183.036514, 157.795434)"><g><path d="M 23.1875 0 L 21.9375 -4.203125 L 11.484375 -4.203125 L 10.234375 0 L 0.4375 0 L 11.3125 -29.828125 L 22.453125 -29.828125 L 33.328125 0 Z M 13.484375 -10.875 L 19.9375 -10.875 L 16.8125 -21.5 L 16.640625 -21.5 Z M 13.484375 -10.875 "/></g></g></g><g fill="#000000" fill-opacity="1"><g transform="translate(212.937291, 157.795434)"><g><path d="M 32.890625 -12 C 32.890625 -7.925781 31.601562 -4.820312 29.03125 -2.6875 C 26.46875 -0.550781 22.816406 0.515625 18.078125 0.515625 C 13.335938 0.515625 9.671875 -0.550781 7.078125 -2.6875 C 4.492188 -4.820312 3.203125 -7.925781 3.203125 -12 L 3.203125 -29.828125 L 12.78125 -29.828125 L 12.78125 -12.140625 C 12.78125 -10.460938 13.226562 -9.125 14.125 -8.125 C 15.019531 -7.125 16.320312 -6.625 18.03125 -6.625 C 19.738281 -6.625 21.046875 -7.128906 21.953125 -8.140625 C 22.859375 -9.160156 23.3125 -10.492188 23.3125 -12.140625 L 23.3125 -29.828125 L 32.890625 -29.828125 Z M 32.890625 -12 "/></g></g></g><g clip-path="url(#876dd03949)"><path fill="#d0a95d" d="M 187.5 162.671875 L 193.414062 175.976562 C 193.644531 176.484375 194 176.929688 194.453125 177.257812 C 194.90625 177.585938 195.4375 177.789062 195.992188 177.847656 L 210.472656 179.363281 L 199.648438 189.101562 C 199.234375 189.476562 198.925781 189.953125 198.75 190.484375 C 198.578125 191.015625 198.546875 191.585938 198.664062 192.132812 L 201.699219 206.375 L 189.089844 199.089844 C 188.605469 198.808594 188.058594 198.660156 187.5 198.660156 C 186.9375 198.660156 186.390625 198.808594 185.90625 199.089844 L 173.296875 206.375 L 176.332031 192.132812 C 176.449219 191.585938 176.417969 191.015625 176.246094 190.484375 C 176.070312 189.953125 175.761719 189.476562 175.347656 189.101562 L 164.523438 179.363281 L 179.003906 177.847656 C 179.558594 177.789062 180.089844 177.585938 180.542969 177.257812 C 180.996094 176.929688 181.351562 176.484375 181.582031 175.976562 Z M 187.5 162.671875 " fill-opacity="1" fill-rule="evenodd"/></g><g fill="#000000" fill-opacity="1"><g transform="translate(130.275677, 201.836574)"><g><path d="M 31.515625 -20.671875 C 31.515625 -18.847656 31.019531 -17.195312 30.03125 -15.71875 C 29.050781 -14.25 27.625 -13.171875 25.75 -12.484375 L 32.375 0 L 21.625 0 L 16.34375 -10.875 L 12.78125 -10.875 L 12.78125 0 L 3.203125 0 L 3.203125 -29.828125 L 21.453125 -29.828125 C 23.585938 -29.828125 25.414062 -29.410156 26.9375 -28.578125 C 28.457031 -27.753906 29.597656 -26.640625 30.359375 -25.234375 C 31.128906 -23.835938 31.515625 -22.316406 31.515625 -20.671875 Z M 21.765625 -20.28125 C 21.765625 -21.0625 21.503906 -21.710938 20.984375 -22.234375 C 20.460938 -22.753906 19.828125 -23.015625 19.078125 -23.015625 L 12.78125 -23.015625 L 12.78125 -17.515625 L 19.078125 -17.515625 C 19.828125 -17.515625 20.460938 -17.78125 20.984375 -18.3125 C 21.503906 -18.84375 21.765625 -19.5 21.765625 -20.28125 Z M 21.765625 -20.28125 "/></g></g></g><g fill="#000000" fill-opacity="1"><g transform="translate(160.181925, 201.836574)"><g/></g></g><g fill="#000000" fill-opacity="1"><g transform="translate(170.798225, 201.836574)"><g/></g></g><g fill="#000000" fill-opacity="1"><g transform="translate(181.414524, 201.836574)"><g/></g></g><g fill="#000000" fill-opacity="1"><g transform="translate(192.030824, 201.836574)"><g/></g></g><g fill="#000000" fill-opacity="1"><g transform="translate(202.647124, 201.836574)"><g/></g></g><g fill="#000000" fill-opacity="1"><g transform="translate(213.267859, 201.836574)"><g><path d="M 20.375 -22.1875 L 20.375 0 L 10.796875 0 L 10.796875 -22.1875 L 1 -22.1875 L 1 -29.828125 L 30.125 -29.828125 L 30.125 -22.1875 Z M 20.375 -22.1875 "/></g></g></g><g fill="#000000" fill-opacity="1"><g transform="translate(240.741831, 201.836574)"><g><path d="M 3.640625 0 L 3.640625 -29.828125 L 13.21875 -29.828125 L 13.21875 0 Z M 3.640625 0 "/></g></g></g><g fill="#000000" fill-opacity="1"><g transform="translate(253.784943, 201.836574)"><g><path d="M 24.53125 0 L 12 -14.484375 L 12 0 L 3.203125 0 L 3.203125 -29.828125 L 11.578125 -29.828125 L 24.09375 -15.125 L 24.09375 -29.828125 L 32.890625 -29.828125 L 32.890625 0 Z M 24.53125 0 "/></g></g></g><g fill="#000000" fill-opacity="1"><g transform="translate(286.069198, 201.836574)"><g><path d="M 18.203125 -30.34375 C 21.066406 -30.34375 23.640625 -29.90625 25.921875 -29.03125 C 28.203125 -28.164062 30.015625 -26.890625 31.359375 -25.203125 C 32.703125 -23.515625 33.375 -21.457031 33.375 -19.03125 L 24.234375 -19.03125 C 24.234375 -20.269531 23.679688 -21.269531 22.578125 -22.03125 C 21.484375 -22.800781 20.15625 -23.1875 18.59375 -23.1875 C 16.34375 -23.1875 14.640625 -22.585938 13.484375 -21.390625 C 12.328125 -20.191406 11.75 -18.492188 11.75 -16.296875 L 11.75 -13.515625 C 11.75 -11.328125 12.328125 -9.628906 13.484375 -8.421875 C 14.640625 -7.222656 16.34375 -6.625 18.59375 -6.625 C 20.15625 -6.625 21.484375 -6.992188 22.578125 -7.734375 C 23.679688 -8.472656 24.234375 -9.421875 24.234375 -10.578125 L 17.46875 -10.578125 L 17.46875 -16.640625 L 33.375 -16.640625 L 33.375 0 L 28.4375 0 L 27.484375 -2.953125 C 24.765625 -0.640625 21.207031 0.515625 16.8125 0.515625 C 11.875 0.515625 8.160156 -0.773438 5.671875 -3.359375 C 3.191406 -5.941406 1.953125 -9.789062 1.953125 -14.90625 C 1.953125 -19.96875 3.359375 -23.804688 6.171875 -26.421875 C 8.992188 -29.035156 13.003906 -30.34375 18.203125 -30.34375 Z M 18.203125 -30.34375 "/></g></g></g></svg>