<svg xmlns="http://www.w3.org/2000/svg" xmlns:xlink="http://www.w3.org/1999/xlink" width="500" zoomAndPan="magnify" viewBox="0 0 375 374.999991" height="500" preserveAspectRatio="xMidYMid meet" version="1.0"><defs><g/><clipPath id="cd42821b42"><path d="M 206.828125 144.441406 L 321.347656 144.441406 L 321.347656 253.25 L 206.828125 253.25 Z M 206.828125 144.441406 " clip-rule="nonzero"/></clipPath></defs><g fill="#000000" fill-opacity="1"><g transform="translate(100.392359, 233.290065)"><g><path d="M 127.640625 30.765625 C 126.625 29.890625 125.109375 30.015625 124.21875 31.15625 C 120.546875 35.578125 117 37.734375 113.453125 37.609375 C 104.84375 37.359375 95.34375 23.9375 85.21875 9.875 C 78 -0.375 70.03125 -11.65625 60.90625 -20.265625 C 67.75 -22.546875 74.453125 -25.828125 80.90625 -30.265625 C 92.9375 -38.5 103.703125 -50.265625 111.4375 -63.3125 C 123.078125 -83.1875 125.734375 -102.953125 118.390625 -114.84375 C 114.46875 -121.3125 105.734375 -128.65625 86.484375 -127.265625 C 57.359375 -125.234375 23.546875 -106.109375 11.390625 -84.578125 C 5.1875 -73.828125 4.6875 -62.9375 9.625 -52.921875 C 10.25 -51.796875 11.65625 -51.28125 12.921875 -51.921875 C 14.0625 -52.421875 14.5625 -53.9375 13.921875 -55.203125 C 9.625 -63.6875 10.25 -72.8125 15.578125 -82.171875 C 26.96875 -102.0625 59.515625 -120.546875 86.859375 -122.453125 C 100.15625 -123.328125 109.53125 -119.90625 114.21875 -112.3125 C 120.671875 -101.9375 118.015625 -84.078125 107.25 -65.71875 C 92.8125 -41.40625 73.4375 -28.875 56.46875 -24.0625 C 54.453125 -25.703125 52.421875 -27.21875 50.265625 -28.484375 C 48.125 -29.890625 45.96875 -31.015625 43.8125 -32.03125 C 45.078125 -36.84375 46.21875 -41.53125 47.234375 -45.96875 C 52.921875 -68.75 58.125 -90.28125 61.03125 -103.328125 C 61.28125 -104.59375 60.53125 -105.859375 59.140625 -106.234375 C 57.875 -106.484375 56.59375 -105.609375 56.34375 -104.34375 C 53.4375 -91.296875 48.125 -69.890625 42.546875 -47.109375 C 41.40625 -42.546875 40.390625 -38.109375 39.25 -33.9375 C 32.03125 -36.59375 26.078125 -36.59375 22.40625 -33.8125 C 20.140625 -31.90625 19.25 -29.125 20.140625 -26.34375 C 21.40625 -22.546875 25.953125 -18.359375 35.203125 -17.21875 C 14.8125 66.984375 15.1875 72.296875 19.125 73.703125 C 19.5 73.828125 19.875 73.828125 20.140625 73.828125 C 22.546875 73.828125 24.4375 70.53125 27.734375 63.3125 C 28.234375 62.171875 27.734375 60.65625 26.46875 60.140625 C 25.203125 59.640625 23.8125 60.140625 23.171875 61.40625 C 22.921875 62.046875 22.546875 62.8125 22.28125 63.4375 C 24.4375 48.875 32.421875 14.8125 40.140625 -16.96875 C 45.203125 -16.84375 50.265625 -17.46875 55.46875 -18.609375 C 65.078125 -10.25 73.5625 1.765625 81.296875 12.65625 C 92.5625 28.484375 102.1875 42.171875 113.328125 42.546875 C 113.453125 42.546875 113.578125 42.546875 113.703125 42.546875 C 118.78125 42.546875 123.453125 39.765625 128.015625 34.1875 C 128.90625 33.171875 128.65625 31.65625 127.640625 30.765625 Z M 24.8125 -27.859375 C 24.5625 -28.75 24.6875 -29.375 25.453125 -29.890625 C 26.46875 -30.765625 27.859375 -31.15625 29.5 -31.15625 C 32.03125 -31.15625 35.078125 -30.265625 38.109375 -29.125 C 37.484375 -26.71875 36.96875 -24.3125 36.34375 -22.03125 C 29.5 -22.796875 25.578125 -25.453125 24.8125 -27.859375 Z M 41.40625 -21.78125 C 41.78125 -23.546875 42.171875 -25.328125 42.671875 -27.09375 C 44.578125 -26.21875 46.34375 -25.203125 47.734375 -24.3125 C 48.625 -23.8125 49.515625 -23.296875 50.265625 -22.671875 C 47.234375 -22.15625 44.1875 -21.90625 41.40625 -21.78125 Z M 41.40625 -21.78125 "/></g></g></g><g clip-path="url(#cd42821b42)"><path fill="#d0a95d" d="M 264.054688 144.441406 L 278.792969 177.574219 C 279.359375 178.847656 280.25 179.945312 281.375 180.765625 C 282.503906 181.585938 283.824219 182.089844 285.210938 182.238281 L 321.277344 186.015625 L 294.320312 210.269531 C 293.28125 211.199219 292.511719 212.386719 292.082031 213.710938 C 291.652344 215.039062 291.578125 216.453125 291.867188 217.8125 L 299.417969 253.28125 L 268.019531 235.140625 C 266.816406 234.441406 265.449219 234.074219 264.054688 234.074219 C 262.660156 234.074219 261.292969 234.441406 260.085938 235.140625 L 228.691406 253.28125 L 236.242188 217.8125 C 236.53125 216.453125 236.457031 215.039062 236.027344 213.710938 C 235.597656 212.386719 234.824219 211.199219 233.789062 210.269531 L 206.832031 186.015625 L 242.898438 182.238281 C 244.285156 182.089844 245.605469 181.585938 246.734375 180.765625 C 247.859375 179.945312 248.75 178.847656 249.316406 177.574219 Z M 264.054688 144.441406 " fill-opacity="1" fill-rule="evenodd"/></g></svg>